PathFileType	3	(X/Y/Z)	E:\ViconData\BIOM9541 2025\Week 7\Wed1100\Hanif 90 squat 7-5 Squat 01.trc
DataRate	CameraRate	NumFrames	NumMarkers	Units	OrigDataRate	OrigDataStartFrame	OrigNumFrames
200.0	200.0	16	19	mm	200.0	1246	1661	
Frame#	Time	C7			CLAV			RBAK			LASI			RASI			LPSI			RPSI			LTHI			LKNE			LTIB			LANK			LHEE			LTOE			RTHI			RKNE			RTIB			RANK			RHEE			RTOE			
		X1	Y1	Z1	X2	Y2	Z2	X3	Y3	Z3	X4	Y4	Z4	X5	Y5	Z5	X6	Y6	Z6	X7	Y7	Z7	X8	Y8	Z8	X9	Y9	Z9	X10	Y10	Z10	X11	Y11	Z11	X12	Y12	Z12	X13	Y13	Z13	X14	Y14	Z14	X15	Y15	Z15	X16	Y16	Z16	X17	Y17	Z17	X18	Y18	Z18	X19	Y19	Z19	
1246	6.225	331.04922	954.43719	-1224.1271	189.39967	870.98352	-1212.6538	348.90396	874.69788	-1375.3469	281.14655	521.38995	-1094.8024	271.94086	538.47583	-1355.8999	449.69492	583.15002	-1181.3583	448.53555	580.72919	-1254.9554	174.12604	430.53601	-933.79382	78.772453	345.78204	-885.34772	200.6507	181.92099	-917.32922	300.72629	67.267815	-977.39532	322.40863	55.07246	-1035.4333	161.68321	38.726986	-947.16608	302.46066	492.15225	-1437.2107	80.060623	326.57584	-1540.2191	120.27793	253.5854	-1532.808	288.58044	70.143684	-1435.3054	316.32736	54.554451	-1364.8839	162.28938	39.962605	-1464.3832
1247	6.23	330.82462	952.82825	-1224.1847	189.21652	869.23138	-1212.7698	348.79877	873.04077	-1375.4338	281.4693	519.85144	-1095.0562	272.02652	537.02576	-1355.9681	449.90915	581.53766	-1181.4601	448.72318	579.07013	-1255.0553	174.26498	430.03183	-933.97144	78.642708	345.71964	-885.45215	200.53514	181.88498	-917.38037	300.70203	67.299614	-977.42554	322.3584	55.037426	-1035.4603	161.65698	38.752617	-947.22253	302.60385	491.08884	-1437.15	79.629204	326.35959	-1540.1639	119.92307	253.41603	-1532.6918	288.52271	70.180016	-1435.29	316.27716	54.61097	-1364.8553	162.24701	39.958973	-1464.3469
1248	6.235	330.60898	951.26904	-1224.2922	188.80392	867.74414	-1212.7307	348.6655	871.42963	-1375.6064	281.61447	518.34552	-1094.9916	272.0932	535.56299	-1356.0226	450.10599	579.97821	-1181.4119	448.86832	577.51031	-1255.0547	174.36284	429.54062	-934.15314	78.525261	345.64249	-885.52429	200.43356	181.7986	-917.4707	300.68381	67.403893	-977.44611	322.30521	55.089142	-1035.5021	161.67688	38.803627	-947.29578	302.67441	490.07785	-1437.1426	79.265373	326.1752	-1540.0868	119.59689	253.30463	-1532.6082	288.45245	70.274696	-1435.2793	316.70004	54.919926	-1365.2249	162.21239	39.970615	-1464.296
1249	6.24	330.47595	949.72479	-1224.4552	189.00862	865.56134	-1212.9219	348.56741	869.8999	-1375.7023	281.9324	516.82104	-1095.1068	272.28894	534.15729	-1356.1371	450.28271	578.46454	-1181.3289	449.02237	575.85815	-1255.132	174.53264	429.13702	-934.37122	78.415955	345.52423	-885.6402	200.3387	181.71791	-917.54596	300.66647	67.648628	-977.41449	322.28687	55.167778	-1035.5404	161.68629	38.85136	-947.33197	302.81506	489.04092	-1436.9999	78.940285	326.03818	-1540.0205	119.30704	253.19443	-1532.5181	288.43146	70.334763	-1435.2601	316.26981	54.731106	-1364.8708	162.18944	39.995544	-1464.2944
1250	6.245	330.39075	948.21765	-1224.6581	188.9254	863.82178	-1213.0786	348.38672	868.32233	-1375.7924	282.16125	515.46521	-1095.1793	272.37775	532.78485	-1356.1931	450.48502	576.9812	-1181.4487	449.2276	574.35474	-1255.2531	174.65128	428.66516	-934.51898	78.282303	345.46671	-885.71423	200.20793	181.69888	-917.61084	300.66022	67.699066	-977.42535	322.31787	55.179871	-1035.5959	161.69029	38.839245	-947.38367	302.99893	487.9985	-1436.9705	78.653839	325.84625	-1539.949	119.05621	253.05023	-1532.4368	288.43884	70.340599	-1435.269	316.32336	54.773857	-1364.8967	162.20482	39.970356	-1464.26
1251	6.25	330.25262	946.62744	-1224.8162	188.61484	862.35229	-1213.1599	348.31516	866.88013	-1375.9851	282.26053	514.09027	-1095.0248	272.56073	531.28949	-1356.1891	450.71057	575.56805	-1181.7644	449.45792	572.83722	-1255.4371	174.77652	428.2496	-934.68195	78.178703	345.41769	-885.7948	200.09766	181.69197	-917.67786	300.23553	66.909416	-977.52887	322.27185	55.092228	-1035.5488	161.6925	38.815159	-947.44781	303.12967	486.95184	-1436.9064	78.362839	325.565	-1539.8317	118.8186	252.84702	-1532.3197	288.42361	70.289619	-1435.2665	316.33835	54.796646	-1364.8953	162.20158	39.884628	-1464.2264
1252	6.255	330.07806	945.12585	-1224.8843	188.40527	860.90314	-1213.2123	348.20001	865.479	-1376.0865	282.52322	512.7597	-1095.2758	272.66153	529.88898	-1356.2284	450.93677	574.07001	-1181.9163	449.6095	571.51147	-1255.5004	174.92781	427.79803	-934.83325	78.0494	345.35382	-885.8736	199.98547	181.67093	-917.72736	300.24918	66.918411	-977.57819	322.21909	55.022125	-1035.5365	161.67671	38.74313	-947.45178	303.27362	485.87427	-1436.7371	78.06369	325.34537	-1539.7458	118.55141	252.71019	-1532.2482	288.36618	70.295349	-1435.2473	316.35446	54.793072	-1364.8898	162.2074	39.83807	-1464.1818
1253	6.26	329.95764	943.70276	-1224.9595	188.53484	859.11951	-1213.4177	348.01871	864.05988	-1376.2134	282.87283	511.38599	-1095.4666	272.69864	528.6402	-1356.3406	451.08655	572.61224	-1181.8175	449.71741	570.08234	-1255.5809	175.0192	427.37137	-934.9953	77.96035	345.24652	-885.99823	199.89262	181.62807	-917.80066	300.19452	66.940742	-977.5722	322.21454	55.061546	-1035.5499	161.63757	38.749786	-947.39642	303.35208	485.04849	-1436.7594	77.692139	325.1731	-1539.6115	118.25369	252.58824	-1532.1163	288.33008	70.316139	-1435.2277	316.3765	54.777367	-1364.932	162.16658	39.815834	-1464.1172
1254	6.265	329.82706	942.36578	-1225.028	188.44122	857.74109	-1213.4762	347.79929	862.68811	-1376.2668	282.75647	509.98914	-1095.1049	272.75937	527.45642	-1356.4508	451.25867	571.33057	-1182.0078	449.84442	568.62439	-1255.7051	175.15681	426.94482	-935.25305	77.876419	345.14645	-886.15741	199.81502	181.6664	-917.86615	300.07159	66.924683	-977.49249	322.21274	55.118137	-1035.5797	161.58557	38.767193	-947.37115	303.42538	484.13889	-1436.708	77.321144	325.0242	-1539.45	117.91589	252.4474	-1531.9506	288.28336	70.372818	-1435.2135	316.35706	54.797234	-1364.8947	162.14819	39.846165	-1464.0812
1255	6.27	329.7645	941.07245	-1225.218	188.02287	856.71057	-1213.3458	347.65506	861.36749	-1376.4581	282.13898	509.7077	-1092.9894	272.8537	526.14233	-1356.4075	451.47586	569.98273	-1182.3102	450.00296	567.32135	-1255.876	175.23062	426.61005	-935.4433	77.783508	345.17096	-886.27905	199.75372	181.66844	-917.95538	300.06467	66.991806	-977.54657	322.15649	55.056095	-1035.5597	161.58212	38.734348	-947.4231	303.55774	483.25037	-1436.7085	77.022728	324.85233	-1539.3527	117.58284	252.29416	-1531.7968	288.22684	70.359032	-1435.1866	316.38815	54.785564	-1364.9486	162.15422	39.831627	-1464.0651
1256	6.275	329.59641	939.73474	-1225.2777	188.34477	854.92615	-1213.5831	347.48032	860.06366	-1376.5118	282.36493	508.67374	-1093.007	272.98737	524.86578	-1356.4404	451.71368	568.72113	-1182.6206	450.19852	566.19971	-1256.079	175.36464	426.2623	-935.68201	77.722336	345.17389	-886.44543	199.6864	181.7265	-918.0387	300.0708	66.961548	-977.61279	322.19376	55.03154	-1035.5846	161.58963	38.714817	-947.50092	303.72098	482.35614	-1436.583	76.799454	324.67346	-1539.2622	117.33208	252.10925	-1531.6561	288.2106	70.362419	-1435.1891	316.41089	54.789017	-1365	162.15465	39.750336	-1464.0529
1257	6.28	329.50577	938.46191	-1225.4634	188.33434	853.74084	-1213.7762	347.36243	858.85059	-1376.6815	282.56082	507.59393	-1093.0209	273.07596	523.66193	-1356.5295	451.9068	567.56702	-1182.851	450.41183	565.10797	-1256.2432	175.48242	425.93677	-935.92108	77.658607	345.21103	-886.58551	199.62578	181.77827	-918.07642	300.0947	66.972778	-977.68347	322.09848	54.927933	-1035.4972	161.62288	38.731812	-947.56183	303.88965	481.44711	-1436.4932	76.546288	324.46103	-1539.121	117.10315	252.00125	-1531.5247	288.2103	70.3377	-1435.153	316.43018	54.817097	-1365.0067	162.17746	39.742332	-1464.0353
1258	6.285	329.40067	937.27386	-1225.583	188.02222	852.6991	-1213.7876	347.18219	857.6319	-1376.75	282.75568	506.48099	-1093.0298	273.11053	522.58917	-1356.6216	452.04282	566.42889	-1182.7174	450.40579	563.70532	-1256.3103	175.61835	425.59213	-936.12775	77.61628	345.22122	-886.71954	199.56812	181.7767	-918.16504	300.07712	66.984726	-977.66443	322.16019	55.078537	-1035.5782	161.64311	38.747219	-947.6311	304.04123	480.65042	-1436.5039	76.28302	324.38348	-1539.0326	116.88493	251.91164	-1531.4069	288.17728	70.423378	-1435.1222	316.39651	54.887768	-1364.9163	162.17276	39.744511	-1463.9845
1259	6.29	329.21033	936.07294	-1225.636	187.88239	851.461	-1213.6647	347.05545	856.4682	-1376.9424	282.99078	505.37909	-1093.0992	273.18094	521.47217	-1356.632	452.14331	565.33466	-1182.5181	450.45999	562.48297	-1256.3848	175.72978	425.28183	-936.31744	77.570114	345.12161	-886.89661	199.50407	181.74626	-918.19781	300.03201	67.01593	-977.63043	322.17786	55.193436	-1035.6281	161.61017	38.78019	-947.58954	304.1424	479.85052	-1436.3793	76.012703	324.30145	-1538.9308	116.64242	251.89799	-1531.2988	288.11407	70.525551	-1435.0852	316.69498	55.336102	-1365.0404	162.12086	39.769642	-1463.9479
1260	6.295	329.06418	934.98669	-1225.7356	187.66823	850.4068	-1213.6281	346.89633	855.37402	-1377.0433	283.16013	504.3584	-1093.0912	273.27118	520.45374	-1356.6749	452.24478	564.25	-1182.4707	450.46262	561.05194	-1256.4719	175.83092	424.94122	-936.55469	77.50264	345.08179	-887.04395	199.45061	181.70973	-918.26245	300.01633	67.023361	-977.63892	322.92337	55.5956	-1035.8895	161.61731	38.838451	-947.60822	304.19046	479.21417	-1436.4624	75.736107	324.26581	-1538.8473	116.41715	251.9097	-1531.2312	288.06754	70.593956	-1435.0679	316.20236	55.128819	-1364.4596	162.08977	39.800175	-1463.918
1261	6.3	328.88034	933.85876	-1225.8199	187.99045	848.76129	-1213.8425	346.78821	854.2912	-1377.2167	283.32904	503.32404	-1093.1151	273.31543	519.44525	-1356.7664	452.41711	563.15405	-1182.6837	450.63245	560.078	-1256.6279	175.91635	424.6698	-936.77136	77.427765	345.07404	-887.19458	199.3748	181.71196	-918.32349	300.00638	66.99527	-977.67285	322.29752	55.290169	-1035.7632	161.59634	38.840973	-947.61591	304.35608	478.44556	-1436.3827	75.455109	324.16232	-1538.726	116.23268	251.85301	-1531.1289	288.04025	70.631432	-1435.0305	316.20248	55.12574	-1364.4816	162.06602	39.78511	-1463.9044
